<?xml version="1.0" encoding="UTF-8"?>
<!DOCTYPE svg PUBLIC "-//W3C//DTD SVG 1.1//EN" "http://www.w3.org/Graphics/SVG/1.1/DTD/svg11.dtd">
<!-- Creator: CorelDRAW Home & Student X7 -->
<svg xmlns="http://www.w3.org/2000/svg" xml:space="preserve" width="78.7929mm" height="15.0044mm" version="1.1" style="shape-rendering:geometricPrecision; text-rendering:geometricPrecision; image-rendering:optimizeQuality; fill-rule:evenodd; clip-rule:evenodd"
viewBox="0 0 6930 1320"
 xmlns:xlink="http://www.w3.org/1999/xlink">
 <defs>
  <style type="text/css">
   <![CDATA[
    .str3 {stroke:#212220;stroke-width:15.5066}
    .str0 {stroke:#CCCCCC;stroke-width:15.5066}
    .str4 {stroke:#FEFEFE;stroke-width:6.70225}
    .str2 {stroke:#C5C6C6;stroke-width:6.70225}
    .str1 {stroke:#CCCCCC;stroke-width:6.70225}
    .fil1 {fill:none;fill-rule:nonzero}
    .fil2 {fill:#E31E24}
    .fil3 {fill:black}
    .fil5 {fill:#FEFEFE;fill-rule:nonzero}
    .fil4 {fill:#212220;fill-rule:nonzero}
    .fil0 {fill:#CCCCCC;fill-rule:nonzero}
   ]]>
  </style>
 </defs>
 <g id="Слой_x0020_1">
  <metadata id="CorelCorpID_0Corel-Layer"/>
  <g id="_287635728">
   <path class="fil0" d="M101 1288l-71 0 434 -242 80 0 95 242 -71 0 -29 -76 -304 0 -134 76zm430 -98l-45 -121 -212 121 257 0z"/>
   <path id="1" class="fil1 str0" d="M101 1288l-71 0 434 -242 80 0 95 242 -71 0 -29 -76 -304 0 -134 76zm430 -98l-45 -121 -212 121 257 0z"/>
   <polygon class="fil0" points="574,1288 743,1046 842,1046 931,1257 1313,1046 1412,1046 1243,1288 1179,1288 1328,1074 939,1288 878,1288 788,1074 638,1288 "/>
   <polygon id="1" class="fil1 str0" points="574,1288 743,1046 842,1046 931,1257 1313,1046 1412,1046 1243,1288 1179,1288 1328,1074 939,1288 878,1288 788,1074 638,1288 "/>
   <path class="fil0" d="M1889 1108c-20,-15 -47,-26 -80,-33 -32,-7 -73,-11 -122,-11 -75,0 -147,10 -215,30 -68,20 -112,44 -131,72 -20,29 -11,54 29,74 40,20 97,30 174,30 47,0 93,-3 135,-10 43,-7 84,-18 122,-32l79 0c-45,21 -98,37 -159,48 -60,11 -123,17 -188,17 -100,0 -176,-12 -226,-36 -50,-25 -62,-55 -37,-92 12,-17 33,-33 61,-48 29,-15 65,-29 109,-41 40,-11 83,-20 127,-26 45,-6 91,-9 138,-9 68,0 125,6 171,18 46,11 77,28 94,49l-81 0z"/>
   <path id="1" class="fil1 str0" d="M1889 1108c-20,-15 -47,-26 -80,-33 -32,-7 -73,-11 -122,-11 -75,0 -147,10 -215,30 -68,20 -112,44 -131,72 -20,29 -11,54 29,74 40,20 97,30 174,30 47,0 93,-3 135,-10 43,-7 84,-18 122,-32l79 0c-45,21 -98,37 -159,48 -60,11 -123,17 -188,17 -100,0 -176,-12 -226,-36 -50,-25 -62,-55 -37,-92 12,-17 33,-33 61,-48 29,-15 65,-29 109,-41 40,-11 83,-20 127,-26 45,-6 91,-9 138,-9 68,0 125,6 171,18 46,11 77,28 94,49l-81 0z"/>
  </g>
  <path class="fil0" d="M2038 1247l37 0c-1,2 -2,3 -2,3 -6,9 -9,15 -9,18 0,3 3,6 8,7 9,3 43,4 103,4 43,0 74,-1 95,-3 20,-3 35,-10 44,-24 5,-6 7,-12 6,-15 0,-3 -4,-6 -10,-7 -6,-2 -15,-2 -28,-3 -13,0 -55,0 -126,0 -24,0 -43,-1 -55,-3 -13,-3 -21,-7 -25,-12 -5,-6 -3,-16 6,-29 10,-14 25,-24 44,-30 9,-3 18,-6 28,-7 10,-2 23,-3 39,-4 27,-2 58,-3 93,-3 32,0 57,1 73,3 17,2 29,5 35,9 6,4 9,8 8,13 0,5 -4,12 -11,22l-38 0c1,-1 1,-2 2,-2 5,-8 7,-13 6,-16 -2,-4 -10,-7 -23,-9 -14,-1 -36,-2 -66,-2 -38,0 -66,1 -86,2 -20,2 -34,4 -43,8 -9,3 -16,9 -21,16 -5,7 -7,12 -6,15 1,3 5,6 13,7 11,2 36,4 73,4 13,0 44,0 94,0 21,0 36,1 46,3 9,2 16,6 19,11 4,6 2,15 -6,27 -8,12 -18,21 -30,27 -14,8 -34,13 -59,16 -25,2 -68,4 -128,4 -32,0 -56,-1 -70,-2 -15,-1 -25,-3 -32,-6 -9,-3 -13,-7 -13,-12 -1,-5 2,-13 10,-23 0,0 2,-3 5,-7z"/>
  <polygon id="1" class="fil0" points="2386,1296 2497,1139 2780,1139 2767,1158 2522,1158 2488,1206 2722,1206 2709,1224 2476,1224 2437,1278 2682,1278 2669,1296 "/>
  <path id="2" class="fil0" d="M2726 1296l110 -157 180 0c49,1 80,1 93,2 22,2 35,8 37,18 1,7 -2,16 -11,28 -6,9 -12,16 -17,20 -5,5 -11,9 -18,12 -11,4 -25,7 -42,9 12,1 20,4 24,8 3,3 4,7 3,12 -2,4 -7,13 -17,26l-15 22 -39 0 11 -15c9,-13 14,-21 17,-26 4,-10 -2,-16 -19,-18 -7,0 -13,-1 -18,-1 -6,0 -24,0 -57,0l-141 0 -43 60 -38 0zm94 -78l141 0c38,0 62,-1 73,-1 11,-1 21,-2 29,-5 12,-3 23,-12 33,-26 8,-11 9,-19 3,-23 -5,-2 -13,-4 -25,-4 -12,-1 -36,-1 -71,-1l-141 0 -42 60z"/>
  <polygon id="3" class="fil0" points="3204,1139 3246,1139 3292,1277 3306,1277 3543,1139 3586,1139 3315,1296 3256,1296 "/>
  <polygon id="4" class="fil0" points="3630,1139 3669,1139 3558,1296 3519,1296 "/>
  <path id="5" class="fil0" d="M3962 1243l37 0c-11,14 -19,24 -25,29 -13,12 -33,19 -58,21 -21,3 -57,4 -106,4 -65,0 -108,-2 -129,-4 -20,-2 -30,-9 -30,-18 -1,-10 8,-28 27,-55 18,-25 33,-43 47,-54 16,-13 39,-21 69,-23 28,-3 69,-4 121,-4 50,0 85,2 104,4 10,2 18,4 23,8 5,4 7,8 5,13 -1,5 -6,14 -15,27l-36 0c2,-2 3,-4 3,-5 6,-8 8,-13 8,-16 -1,-3 -4,-6 -11,-7 -12,-3 -44,-5 -96,-5 -38,0 -67,1 -87,2 -20,1 -33,3 -41,5 -7,2 -15,7 -23,15 -8,8 -17,18 -26,32 -5,6 -10,15 -16,25 -7,10 -11,17 -12,21 -3,6 -3,10 1,13 4,3 11,4 23,5 21,1 52,2 92,2 13,0 29,0 50,-1 20,0 33,-1 39,-1 11,-1 20,-2 26,-4 6,-1 12,-3 16,-7 4,-2 10,-10 20,-22z"/>
  <polygon id="6" class="fil0" points="4022,1296 4133,1139 4416,1139 4403,1158 4158,1158 4124,1206 4358,1206 4345,1224 4111,1224 4073,1278 4318,1278 4305,1296 "/>
  <path id="7" class="fil1 str1" d="M2038 1247l37 0c-1,2 -2,3 -2,3 -6,9 -9,15 -9,18 0,3 3,6 8,7 9,3 43,4 103,4 43,0 74,-1 95,-3 20,-3 35,-10 44,-24 5,-6 7,-12 6,-15 0,-3 -4,-6 -10,-7 -6,-2 -15,-2 -28,-3 -13,0 -55,0 -126,0 -24,0 -43,-1 -55,-3 -13,-3 -21,-7 -25,-12 -5,-6 -3,-16 6,-29 10,-14 25,-24 44,-30 9,-3 18,-6 28,-7 10,-2 23,-3 39,-4 27,-2 58,-3 93,-3 32,0 57,1 73,3 17,2 29,5 35,9 6,4 9,8 8,13 0,5 -4,12 -11,22l-38 0c1,-1 1,-2 2,-2 5,-8 7,-13 6,-16 -2,-4 -10,-7 -23,-9 -14,-1 -36,-2 -66,-2 -38,0 -66,1 -86,2 -20,2 -34,4 -43,8 -9,3 -16,9 -21,16 -5,7 -7,12 -6,15 1,3 5,6 13,7 11,2 36,4 73,4 13,0 44,0 94,0 21,0 36,1 46,3 9,2 16,6 19,11 4,6 2,15 -6,27 -8,12 -18,21 -30,27 -14,8 -34,13 -59,16 -25,2 -68,4 -128,4 -32,0 -56,-1 -70,-2 -15,-1 -25,-3 -32,-6 -9,-3 -13,-7 -13,-12 -1,-5 2,-13 10,-23 0,0 2,-3 5,-7z"/>
  <polygon id="8" class="fil1 str1" points="2386,1296 2497,1139 2780,1139 2767,1158 2522,1158 2488,1206 2722,1206 2709,1224 2476,1224 2437,1278 2682,1278 2669,1296 "/>
  <path id="9" class="fil1 str1" d="M2726 1296l110 -157 180 0c49,1 80,1 93,2 22,2 35,8 37,18 1,7 -2,16 -11,28 -6,9 -12,16 -17,20 -5,5 -11,9 -18,12 -11,4 -25,7 -42,9 12,1 20,4 24,8 3,3 4,7 3,12 -2,4 -7,13 -17,26l-15 22 -39 0 11 -15c9,-13 14,-21 17,-26 4,-10 -2,-16 -19,-18 -7,0 -13,-1 -18,-1 -6,0 -24,0 -57,0l-141 0 -43 60 -38 0zm94 -78l141 0c38,0 62,-1 73,-1 11,-1 21,-2 29,-5 12,-3 23,-12 33,-26 8,-11 9,-19 3,-23 -5,-2 -13,-4 -25,-4 -12,-1 -36,-1 -71,-1l-141 0 -42 60z"/>
  <polygon id="10" class="fil1 str1" points="3204,1139 3246,1139 3292,1277 3306,1277 3543,1139 3586,1139 3315,1296 3256,1296 "/>
  <polygon id="11" class="fil1 str1" points="3630,1139 3669,1139 3558,1296 3519,1296 "/>
  <path id="12" class="fil1 str1" d="M3962 1243l37 0c-11,14 -19,24 -25,29 -13,12 -33,19 -58,21 -21,3 -57,4 -106,4 -65,0 -108,-2 -129,-4 -20,-2 -30,-9 -30,-18 -1,-10 8,-28 27,-55 18,-25 33,-43 47,-54 16,-13 39,-21 69,-23 28,-3 69,-4 121,-4 50,0 85,2 104,4 10,2 18,4 23,8 5,4 7,8 5,13 -1,5 -6,14 -15,27l-36 0c2,-2 3,-4 3,-5 6,-8 8,-13 8,-16 -1,-3 -4,-6 -11,-7 -12,-3 -44,-5 -96,-5 -38,0 -67,1 -87,2 -20,1 -33,3 -41,5 -7,2 -15,7 -23,15 -8,8 -17,18 -26,32 -5,6 -10,15 -16,25 -7,10 -11,17 -12,21 -3,6 -3,10 1,13 4,3 11,4 23,5 21,1 52,2 92,2 13,0 29,0 50,-1 20,0 33,-1 39,-1 11,-1 20,-2 26,-4 6,-1 12,-3 16,-7 4,-2 10,-10 20,-22z"/>
  <polygon id="13" class="fil1 str1" points="4022,1296 4133,1139 4416,1139 4403,1158 4158,1158 4124,1206 4358,1206 4345,1224 4111,1224 4073,1278 4318,1278 4305,1296 "/>
  <path class="fil2" d="M2194 28l-1112 696 -106 0c7,-21 11,-44 11,-68 0,-88 -53,-165 -129,-200l1336 -428zm-1635 696l-537 0 556 -178c-19,33 -30,70 -30,110 0,24 4,47 11,68z"/>
  <circle class="fil3 str2" cx="768" cy="656" r="195"/>
  <g id="_286858248">
   <path class="fil4" d="M1444 747l-169 0 1035 -678 193 0 226 678 -171 0 -68 -213 -725 0 -321 213zm1026 -274l-106 -340 -507 340 613 0z"/>
   <path id="1" class="fil1 str3" d="M1444 747l-169 0 1035 -678 193 0 226 678 -171 0 -68 -213 -725 0 -321 213zm1026 -274l-106 -340 -507 340 613 0z"/>
   <polygon class="fil4" points="2573,747 2977,69 3212,69 3425,659 4336,69 4573,69 4169,747 4016,747 4372,148 3444,747 3299,747 3083,148 2727,747 "/>
   <polygon id="1" class="fil1 str3" points="2573,747 2977,69 3212,69 3425,659 4336,69 4573,69 4169,747 4016,747 4372,148 3444,747 3299,747 3083,148 2727,747 "/>
   <path class="fil4" d="M5710 245c-48,-43 -111,-74 -190,-94 -78,-19 -175,-29 -291,-29 -181,0 -352,28 -514,84 -162,55 -266,122 -312,199 -49,82 -26,151 69,207 94,56 233,85 415,85 113,0 221,-10 323,-30 103,-20 199,-49 290,-88l190 0c-109,58 -236,103 -380,134 -144,32 -293,48 -449,48 -239,0 -419,-35 -538,-102 -120,-68 -149,-153 -89,-255 29,-48 77,-92 146,-135 68,-43 154,-81 258,-115 97,-32 198,-57 305,-73 106,-17 216,-25 328,-25 162,0 298,16 408,49 109,33 184,80 223,140l-192 0z"/>
   <path id="1" class="fil1 str3" d="M5710 245c-48,-43 -111,-74 -190,-94 -78,-19 -175,-29 -291,-29 -181,0 -352,28 -514,84 -162,55 -266,122 -312,199 -49,82 -26,151 69,207 94,56 233,85 415,85 113,0 221,-10 323,-30 103,-20 199,-49 290,-88l190 0c-109,58 -236,103 -380,134 -144,32 -293,48 -449,48 -239,0 -419,-35 -538,-102 -120,-68 -149,-153 -89,-255 29,-48 77,-92 146,-135 68,-43 154,-81 258,-115 97,-32 198,-57 305,-73 106,-17 216,-25 328,-25 162,0 298,16 408,49 109,33 184,80 223,140l-192 0z"/>
  </g>
  <path class="fil2" d="M6118 0l684 0c53,0 97,53 97,119l0 642c0,65 -44,119 -97,119l-684 0c-54,0 -98,-54 -98,-119l0 -642c0,-66 44,-119 98,-119z"/>
  <path class="fil5" d="M6410 257l-89 -13 19 -52c46,-14 90,-29 133,-46 43,-17 85,-37 125,-58 -2,62 -3,123 -4,185 -1,61 -2,122 -2,182 0,57 1,113 2,169 1,56 2,112 4,168 -14,-1 -27,-2 -41,-3 -14,0 -28,0 -41,0 -14,0 -27,0 -40,0 -13,1 -26,2 -38,3l-28 -28c2,-50 3,-96 4,-138 0,-42 1,-82 1,-120 0,-38 -1,-77 -2,-118 -1,-41 -2,-84 -3,-131z"/>
  <path id="1" class="fil1 str4" d="M6410 257l-89 -13 19 -52c46,-14 90,-29 133,-46 43,-17 85,-37 125,-58 -2,62 -3,123 -4,185 -1,61 -2,122 -2,182 0,57 1,113 2,169 1,56 2,112 4,168 -14,-1 -27,-2 -41,-3 -14,0 -28,0 -41,0 -14,0 -27,0 -40,0 -13,1 -26,2 -38,3l-28 -28c2,-50 3,-96 4,-138 0,-42 1,-82 1,-120 0,-38 -1,-77 -2,-118 -1,-41 -2,-84 -3,-131z"/>
  <path class="fil0" d="M4763 1230c0,27 -6,49 -20,64 -13,15 -31,22 -53,22 -23,0 -41,-7 -54,-23 -13,-16 -20,-37 -20,-63 0,-28 7,-49 21,-64 13,-16 31,-23 53,-23 22,0 40,7 53,23 14,15 20,36 20,64zm-28 0c0,-22 -4,-37 -12,-48 -8,-10 -19,-15 -33,-15 -14,0 -25,5 -33,15 -8,11 -12,26 -12,48 0,20 4,36 12,46 8,11 19,16 33,16 14,0 25,-5 33,-15 8,-11 12,-26 12,-47z"/>
  <path id="1" class="fil0" d="M4857 1315c-11,0 -21,-1 -31,-5 -9,-3 -17,-9 -24,-16 -7,-7 -12,-16 -16,-26 -4,-11 -6,-24 -6,-38 0,-15 2,-27 6,-38 4,-10 9,-19 16,-26 6,-7 14,-13 24,-17 10,-4 20,-6 31,-6 9,0 18,2 26,4 9,3 16,6 23,9l0 31 -2 0c-2,-2 -4,-3 -7,-6 -3,-2 -7,-4 -12,-6 -3,-2 -8,-4 -13,-5 -5,-2 -10,-2 -15,-2 -15,0 -26,5 -35,16 -9,11 -13,26 -13,46 0,19 4,34 13,45 8,11 20,16 35,16 9,0 17,-2 26,-5 8,-4 15,-9 21,-15l2 0 0 31c-3,2 -6,3 -10,5 -5,2 -8,3 -12,4 -4,2 -9,3 -12,3 -4,1 -9,1 -15,1z"/>
  <polygon id="2" class="fil0" points="5061,1312 5034,1312 5034,1238 4959,1238 4959,1312 4931,1312 4931,1147 4959,1147 4959,1214 5034,1214 5034,1147 5061,1147 "/>
  <path id="3" class="fil0" d="M5237 1230c0,27 -7,49 -20,64 -14,15 -31,22 -54,22 -23,0 -41,-7 -54,-23 -13,-16 -19,-37 -19,-63 0,-28 6,-49 20,-64 13,-16 31,-23 53,-23 23,0 40,7 54,23 13,15 20,36 20,64zm-29 0c0,-22 -4,-37 -12,-48 -7,-10 -18,-15 -33,-15 -14,0 -25,5 -33,15 -8,11 -12,26 -12,48 0,20 4,36 12,46 8,11 19,16 33,16 15,0 26,-5 33,-15 8,-11 12,-26 12,-47z"/>
  <path id="4" class="fil0" d="M5394 1262c0,8 -1,15 -4,21 -3,6 -7,11 -13,16 -6,5 -13,8 -21,10 -7,2 -16,3 -26,3l-65 0 0 -165 61 0c12,0 21,1 26,1 6,1 11,3 17,6 6,3 10,7 13,13 3,5 4,11 4,18 0,8 -2,15 -7,21 -4,6 -10,11 -17,15l1 1c9,2 16,6 22,13 6,7 9,16 9,27zm-37 -72c0,-4 0,-7 -2,-10 -1,-3 -3,-5 -6,-7 -4,-1 -7,-3 -12,-3 -4,0 -10,0 -18,0l-26 0 0 44 32 0c6,0 11,0 14,-1 3,0 6,-2 9,-4 4,-2 6,-4 7,-8 1,-3 2,-7 2,-11zm9 72c0,-6 -1,-10 -3,-14 -1,-3 -5,-6 -10,-9 -4,-2 -7,-3 -11,-3 -4,0 -10,-1 -17,-1l-32 0 0 55 24 0c10,0 17,-1 23,-2 5,0 10,-2 14,-4 4,-3 7,-6 9,-9 2,-4 3,-8 3,-13z"/>
  <path id="5" class="fil0" d="M5515 1271l0 -45c-6,0 -15,1 -25,2 -10,1 -18,3 -24,5 -7,2 -13,5 -18,10 -5,4 -7,11 -7,19 0,10 2,17 8,22 5,4 13,7 23,7 8,0 16,-2 23,-6 7,-4 14,-8 20,-14zm0 23c-2,2 -5,4 -9,7 -4,3 -7,6 -11,7 -5,3 -9,5 -14,6 -5,2 -11,2 -19,2 -7,0 -13,-1 -19,-3 -7,-3 -12,-7 -17,-11 -4,-5 -7,-10 -10,-17 -3,-7 -4,-14 -4,-21 0,-11 2,-21 7,-29 5,-8 13,-14 23,-19 9,-4 20,-7 33,-9 12,-2 26,-3 40,-4l0 -5c0,-6 -1,-12 -3,-16 -2,-4 -4,-7 -8,-9 -4,-2 -8,-4 -13,-5 -5,0 -10,-1 -16,-1 -6,0 -14,1 -22,3 -9,2 -18,5 -26,9l-2 0 0 -28c5,-2 13,-4 22,-5 10,-2 19,-3 29,-3 11,0 20,1 28,3 8,1 15,5 21,9 6,5 11,11 14,18 3,7 4,16 4,26l0 113 -28 0 0 -18z"/>
  <polygon id="6" class="fil0" points="5712,1312 5684,1312 5684,1238 5610,1238 5610,1312 5582,1312 5582,1147 5610,1147 5610,1214 5684,1214 5684,1147 5712,1147 "/>
  <path id="7" class="fil0" d="M5975 1262c0,8 -1,15 -4,21 -3,6 -7,11 -13,16 -6,5 -13,8 -21,10 -7,2 -16,3 -26,3l-65 0 0 -165 61 0c12,0 21,1 26,1 6,1 12,3 17,6 6,3 10,7 13,13 3,5 4,11 4,18 0,8 -2,15 -6,21 -5,6 -10,11 -18,15l1 1c9,2 16,6 22,13 6,7 9,16 9,27zm-37 -72c0,-4 0,-7 -1,-10 -2,-3 -4,-5 -7,-7 -3,-1 -7,-3 -12,-3 -4,0 -10,0 -18,0l-26 0 0 44 32 0c6,0 11,0 14,-1 3,0 6,-2 9,-4 4,-2 6,-4 7,-8 2,-3 2,-7 2,-11zm9 72c0,-6 -1,-10 -3,-14 -1,-3 -5,-6 -10,-9 -4,-2 -7,-3 -11,-3 -4,0 -10,-1 -17,-1l-32 0 0 55 24 0c10,0 17,-1 23,-2 5,0 10,-2 14,-4 4,-3 7,-6 9,-9 2,-4 3,-8 3,-13z"/>
  <path id="8" class="fil0" d="M6219 1312l-107 0 0 -22 40 0 0 -148 -40 0 0 -20c15,0 26,-2 34,-6 7,-4 11,-13 12,-25l22 0 0 199 39 0 0 22z"/>
  <path id="9" class="fil0" d="M6366 1182c0,-14 -1,-26 -4,-36 -2,-9 -6,-16 -11,-21 -4,-5 -9,-8 -13,-10 -5,-2 -9,-3 -15,-3 -12,0 -21,5 -29,13 -7,9 -10,21 -10,38 0,9 1,16 3,22 3,6 6,11 12,16 3,3 8,5 12,6 5,1 10,1 15,1 7,0 14,-1 21,-3 7,-2 13,-5 19,-9 0,-1 0,-3 0,-6 0,-2 0,-5 0,-8zm-112 -18c0,-12 2,-22 5,-31 4,-10 9,-18 15,-25 7,-6 14,-11 23,-15 9,-3 18,-5 27,-5 10,0 19,2 27,5 8,3 15,8 21,15 8,8 14,18 18,31 4,13 6,30 6,50 0,18 -2,35 -6,52 -4,16 -10,29 -18,40 -8,12 -19,20 -30,26 -12,6 -27,9 -44,9 -4,0 -8,0 -13,0 -4,-1 -8,-2 -12,-3l0 -28 1 0c3,1 7,3 12,4 5,1 10,2 16,2 19,0 34,-6 45,-19 11,-13 17,-31 19,-55 -8,6 -16,10 -23,12 -7,3 -15,4 -23,4 -8,0 -16,-1 -22,-3 -7,-2 -14,-5 -20,-10 -8,-6 -14,-14 -18,-23 -4,-9 -6,-20 -6,-33z"/>
  <path id="10" class="fil0" d="M6531 1182c0,-14 -1,-26 -4,-36 -3,-9 -6,-16 -11,-21 -5,-5 -9,-8 -13,-10 -5,-2 -10,-3 -15,-3 -12,0 -22,5 -29,13 -7,9 -11,21 -11,38 0,9 2,16 4,22 2,6 6,11 11,16 4,3 8,5 13,6 5,1 10,1 15,1 7,0 13,-1 21,-3 7,-2 13,-5 19,-9 0,-1 0,-3 0,-6 0,-2 0,-5 0,-8zm-112 -18c0,-12 1,-22 5,-31 4,-10 9,-18 15,-25 6,-6 14,-11 23,-15 8,-3 17,-5 26,-5 10,0 20,2 28,5 8,3 15,8 21,15 8,8 14,18 18,31 4,13 6,30 6,50 0,18 -2,35 -6,52 -4,16 -10,29 -18,40 -9,12 -19,20 -31,26 -11,6 -26,9 -43,9 -4,0 -9,0 -13,0 -4,-1 -9,-2 -12,-3l0 -28 1 0c3,1 6,3 12,4 5,1 10,2 15,2 20,0 35,-6 46,-19 11,-13 17,-31 18,-55 -7,6 -15,10 -22,12 -7,3 -15,4 -23,4 -8,0 -16,-1 -22,-3 -7,-2 -14,-5 -21,-10 -7,-6 -13,-14 -17,-23 -4,-9 -6,-20 -6,-33z"/>
  <polygon id="11" class="fil0" points="6727,1125 6632,1312 6601,1312 6701,1118 6588,1118 6588,1092 6727,1092 "/>
  <polygon id="12" class="fil0" points="6863,1171 6786,1171 6786,1312 6758,1312 6758,1147 6863,1147 "/>
  <polygon id="13" class="fil0" points="6927,1312 6892,1312 6892,1270 6927,1270 "/>
  <path id="14" class="fil1 str1" d="M4763 1230c0,27 -6,49 -20,64 -13,15 -31,22 -53,22 -23,0 -41,-7 -54,-23 -13,-16 -20,-37 -20,-63 0,-28 7,-49 21,-64 13,-16 31,-23 53,-23 22,0 40,7 53,23 14,15 20,36 20,64zm-28 0c0,-22 -4,-37 -12,-48 -8,-10 -19,-15 -33,-15 -14,0 -25,5 -33,15 -8,11 -12,26 -12,48 0,20 4,36 12,46 8,11 19,16 33,16 14,0 25,-5 33,-15 8,-11 12,-26 12,-47z"/>
  <path id="15" class="fil1 str1" d="M4857 1315c-11,0 -21,-1 -31,-5 -9,-3 -17,-9 -24,-16 -7,-7 -12,-16 -16,-26 -4,-11 -6,-24 -6,-38 0,-15 2,-27 6,-38 4,-10 9,-19 16,-26 6,-7 14,-13 24,-17 10,-4 20,-6 31,-6 9,0 18,2 26,4 9,3 16,6 23,9l0 31 -2 0c-2,-2 -4,-3 -7,-6 -3,-2 -7,-4 -12,-6 -3,-2 -8,-4 -13,-5 -5,-2 -10,-2 -15,-2 -15,0 -26,5 -35,16 -9,11 -13,26 -13,46 0,19 4,34 13,45 8,11 20,16 35,16 9,0 17,-2 26,-5 8,-4 15,-9 21,-15l2 0 0 31c-3,2 -6,3 -10,5 -5,2 -8,3 -12,4 -4,2 -9,3 -12,3 -4,1 -9,1 -15,1z"/>
  <polygon id="16" class="fil1 str1" points="5061,1312 5034,1312 5034,1238 4959,1238 4959,1312 4931,1312 4931,1147 4959,1147 4959,1214 5034,1214 5034,1147 5061,1147 "/>
  <path id="17" class="fil1 str1" d="M5237 1230c0,27 -7,49 -20,64 -14,15 -31,22 -54,22 -23,0 -41,-7 -54,-23 -13,-16 -19,-37 -19,-63 0,-28 6,-49 20,-64 13,-16 31,-23 53,-23 23,0 40,7 54,23 13,15 20,36 20,64zm-29 0c0,-22 -4,-37 -12,-48 -7,-10 -18,-15 -33,-15 -14,0 -25,5 -33,15 -8,11 -12,26 -12,48 0,20 4,36 12,46 8,11 19,16 33,16 15,0 26,-5 33,-15 8,-11 12,-26 12,-47z"/>
  <path id="18" class="fil1 str1" d="M5394 1262c0,8 -1,15 -4,21 -3,6 -7,11 -13,16 -6,5 -13,8 -21,10 -7,2 -16,3 -26,3l-65 0 0 -165 61 0c12,0 21,1 26,1 6,1 11,3 17,6 6,3 10,7 13,13 3,5 4,11 4,18 0,8 -2,15 -7,21 -4,6 -10,11 -17,15l1 1c9,2 16,6 22,13 6,7 9,16 9,27zm-37 -72c0,-4 0,-7 -2,-10 -1,-3 -3,-5 -6,-7 -4,-1 -7,-3 -12,-3 -4,0 -10,0 -18,0l-26 0 0 44 32 0c6,0 11,0 14,-1 3,0 6,-2 9,-4 4,-2 6,-4 7,-8 1,-3 2,-7 2,-11zm9 72c0,-6 -1,-10 -3,-14 -1,-3 -5,-6 -10,-9 -4,-2 -7,-3 -11,-3 -4,0 -10,-1 -17,-1l-32 0 0 55 24 0c10,0 17,-1 23,-2 5,0 10,-2 14,-4 4,-3 7,-6 9,-9 2,-4 3,-8 3,-13z"/>
  <path id="19" class="fil1 str1" d="M5515 1271l0 -45c-6,0 -15,1 -25,2 -10,1 -18,3 -24,5 -7,2 -13,5 -18,10 -5,4 -7,11 -7,19 0,10 2,17 8,22 5,4 13,7 23,7 8,0 16,-2 23,-6 7,-4 14,-8 20,-14zm0 23c-2,2 -5,4 -9,7 -4,3 -7,6 -11,7 -5,3 -9,5 -14,6 -5,2 -11,2 -19,2 -7,0 -13,-1 -19,-3 -7,-3 -12,-7 -17,-11 -4,-5 -7,-10 -10,-17 -3,-7 -4,-14 -4,-21 0,-11 2,-21 7,-29 5,-8 13,-14 23,-19 9,-4 20,-7 33,-9 12,-2 26,-3 40,-4l0 -5c0,-6 -1,-12 -3,-16 -2,-4 -4,-7 -8,-9 -4,-2 -8,-4 -13,-5 -5,0 -10,-1 -16,-1 -6,0 -14,1 -22,3 -9,2 -18,5 -26,9l-2 0 0 -28c5,-2 13,-4 22,-5 10,-2 19,-3 29,-3 11,0 20,1 28,3 8,1 15,5 21,9 6,5 11,11 14,18 3,7 4,16 4,26l0 113 -28 0 0 -18z"/>
  <polygon id="20" class="fil1 str1" points="5712,1312 5684,1312 5684,1238 5610,1238 5610,1312 5582,1312 5582,1147 5610,1147 5610,1214 5684,1214 5684,1147 5712,1147 "/>
  <path id="21" class="fil1 str1" d="M5975 1262c0,8 -1,15 -4,21 -3,6 -7,11 -13,16 -6,5 -13,8 -21,10 -7,2 -16,3 -26,3l-65 0 0 -165 61 0c12,0 21,1 26,1 6,1 12,3 17,6 6,3 10,7 13,13 3,5 4,11 4,18 0,8 -2,15 -6,21 -5,6 -10,11 -18,15l1 1c9,2 16,6 22,13 6,7 9,16 9,27zm-37 -72c0,-4 0,-7 -1,-10 -2,-3 -4,-5 -7,-7 -3,-1 -7,-3 -12,-3 -4,0 -10,0 -18,0l-26 0 0 44 32 0c6,0 11,0 14,-1 3,0 6,-2 9,-4 4,-2 6,-4 7,-8 2,-3 2,-7 2,-11zm9 72c0,-6 -1,-10 -3,-14 -1,-3 -5,-6 -10,-9 -4,-2 -7,-3 -11,-3 -4,0 -10,-1 -17,-1l-32 0 0 55 24 0c10,0 17,-1 23,-2 5,0 10,-2 14,-4 4,-3 7,-6 9,-9 2,-4 3,-8 3,-13z"/>
  <path id="22" class="fil1 str1" d="M6219 1312l-107 0 0 -22 40 0 0 -148 -40 0 0 -20c15,0 26,-2 34,-6 7,-4 11,-13 12,-25l22 0 0 199 39 0 0 22z"/>
  <path id="23" class="fil1 str1" d="M6366 1182c0,-14 -1,-26 -4,-36 -2,-9 -6,-16 -11,-21 -4,-5 -9,-8 -13,-10 -5,-2 -9,-3 -15,-3 -12,0 -21,5 -29,13 -7,9 -10,21 -10,38 0,9 1,16 3,22 3,6 6,11 12,16 3,3 8,5 12,6 5,1 10,1 15,1 7,0 14,-1 21,-3 7,-2 13,-5 19,-9 0,-1 0,-3 0,-6 0,-2 0,-5 0,-8zm-112 -18c0,-12 2,-22 5,-31 4,-10 9,-18 15,-25 7,-6 14,-11 23,-15 9,-3 18,-5 27,-5 10,0 19,2 27,5 8,3 15,8 21,15 8,8 14,18 18,31 4,13 6,30 6,50 0,18 -2,35 -6,52 -4,16 -10,29 -18,40 -8,12 -19,20 -30,26 -12,6 -27,9 -44,9 -4,0 -8,0 -13,0 -4,-1 -8,-2 -12,-3l0 -28 1 0c3,1 7,3 12,4 5,1 10,2 16,2 19,0 34,-6 45,-19 11,-13 17,-31 19,-55 -8,6 -16,10 -23,12 -7,3 -15,4 -23,4 -8,0 -16,-1 -22,-3 -7,-2 -14,-5 -20,-10 -8,-6 -14,-14 -18,-23 -4,-9 -6,-20 -6,-33z"/>
  <path id="24" class="fil1 str1" d="M6531 1182c0,-14 -1,-26 -4,-36 -3,-9 -6,-16 -11,-21 -5,-5 -9,-8 -13,-10 -5,-2 -10,-3 -15,-3 -12,0 -22,5 -29,13 -7,9 -11,21 -11,38 0,9 2,16 4,22 2,6 6,11 11,16 4,3 8,5 13,6 5,1 10,1 15,1 7,0 13,-1 21,-3 7,-2 13,-5 19,-9 0,-1 0,-3 0,-6 0,-2 0,-5 0,-8zm-112 -18c0,-12 1,-22 5,-31 4,-10 9,-18 15,-25 6,-6 14,-11 23,-15 8,-3 17,-5 26,-5 10,0 20,2 28,5 8,3 15,8 21,15 8,8 14,18 18,31 4,13 6,30 6,50 0,18 -2,35 -6,52 -4,16 -10,29 -18,40 -9,12 -19,20 -31,26 -11,6 -26,9 -43,9 -4,0 -9,0 -13,0 -4,-1 -9,-2 -12,-3l0 -28 1 0c3,1 6,3 12,4 5,1 10,2 15,2 20,0 35,-6 46,-19 11,-13 17,-31 18,-55 -7,6 -15,10 -22,12 -7,3 -15,4 -23,4 -8,0 -16,-1 -22,-3 -7,-2 -14,-5 -21,-10 -7,-6 -13,-14 -17,-23 -4,-9 -6,-20 -6,-33z"/>
  <polygon id="25" class="fil1 str1" points="6727,1125 6632,1312 6601,1312 6701,1118 6588,1118 6588,1092 6727,1092 "/>
  <polygon id="26" class="fil1 str1" points="6863,1171 6786,1171 6786,1312 6758,1312 6758,1147 6863,1147 "/>
  <polygon id="27" class="fil1 str1" points="6927,1312 6892,1312 6892,1270 6927,1270 "/>
 </g>
</svg>
